<svg width="125" height="31" viewBox="0 0 125 31" fill="none" xmlns="http://www.w3.org/2000/svg">
<path d="M20.706 15.5C21.4981 15.3992 22.1759 15.2365 22.591 14.9807C23.4168 14.4632 24.0176 13.6176 24.2623 12.6283C24.5069 11.639 24.3756 10.5865 23.897 9.70031C23.4184 8.81415 22.6313 8.16633 21.7075 7.89822C20.7837 7.63012 19.7982 7.7635 18.966 8.26925C18.5509 8.525 18.0797 9.07137 17.603 9.75531C17.9184 8.97062 18.125 8.2615 18.125 7.75C18.125 6.72229 17.7431 5.73666 17.0633 5.00996C16.3834 4.28326 15.4614 3.875 14.5 3.875C13.5386 3.875 12.6166 4.28326 11.9367 5.00996C11.2569 5.73666 10.875 6.72229 10.875 7.75C10.875 8.2615 11.0816 8.97062 11.397 9.75531C10.9203 9.07137 10.4491 8.525 10.034 8.26925C9.20186 7.7635 8.21635 7.63012 7.29255 7.89822C6.36875 8.16633 5.58164 8.81415 5.10301 9.70031C4.62438 10.5865 4.49307 11.639 4.73775 12.6283C4.98242 13.6176 5.58321 14.4632 6.40901 14.9807C6.82407 15.2365 7.50195 15.3992 8.29401 15.5C7.50195 15.6008 6.82407 15.7635 6.40901 16.0192C5.99342 16.2718 5.62867 16.6098 5.33576 17.0137C5.04286 17.4176 4.82758 17.8794 4.70232 18.3726C4.57706 18.8657 4.5443 19.3805 4.60592 19.8873C4.66754 20.3941 4.82233 20.8828 5.06136 21.3254C5.3004 21.768 5.61897 22.1556 5.99873 22.466C6.37849 22.7765 6.81194 23.0035 7.27413 23.1341C7.73631 23.2648 8.2181 23.2964 8.69176 23.2271C9.16542 23.1579 9.62159 22.9892 10.034 22.7308C10.4491 22.475 10.9203 21.9286 11.397 21.2447C11.0816 22.0294 10.875 22.7385 10.875 23.25C10.875 24.2777 11.2569 25.2633 11.9367 25.99C12.6166 26.7167 13.5386 27.125 14.5 27.125C15.4614 27.125 16.3834 26.7167 17.0633 25.99C17.7431 25.2633 18.125 24.2777 18.125 23.25C18.125 22.7385 17.9184 22.0294 17.603 21.2447C18.0797 21.9286 18.5509 22.475 18.966 22.7308C19.3784 22.9892 19.8346 23.1579 20.3083 23.2271C20.7819 23.2964 21.2637 23.2648 21.7259 23.1341C22.1881 23.0035 22.6215 22.7765 23.0013 22.466C23.381 22.1556 23.6996 21.768 23.9386 21.3254C24.1777 20.8828 24.3325 20.3941 24.3941 19.8873C24.4557 19.3805 24.4229 18.8657 24.2977 18.3726C24.1724 17.8794 23.9572 17.4176 23.6643 17.0137C23.3713 16.6098 23.0066 16.2718 22.591 16.0192C22.1759 15.7635 21.4981 15.6008 20.706 15.5ZM16.3125 7.75C16.2942 7.88431 16.267 8.01704 16.2309 8.14719C16.1603 8.40294 16.0497 8.71875 15.8993 9.08494C15.5543 9.89626 15.1689 10.6873 14.7447 11.4545L14.5 11.9001C14.4176 11.7521 14.336 11.6036 14.2553 11.4545C13.8312 10.6873 13.4458 9.89626 13.1008 9.08494C12.9723 8.77991 12.8616 8.46674 12.7691 8.14719C12.7331 8.01703 12.7058 7.8843 12.6875 7.75C12.6875 7.23614 12.8785 6.74333 13.2184 6.37998C13.5583 6.01663 14.0193 5.8125 14.5 5.8125C14.9807 5.8125 15.4417 6.01663 15.7816 6.37998C16.1215 6.74333 16.3125 7.23614 16.3125 7.75ZM6.65188 10.6562C6.89224 10.2113 7.28812 9.88656 7.75243 9.75357C8.21675 9.62058 8.71146 9.69021 9.12776 9.94712C9.22804 10.0315 9.32253 10.1234 9.41051 10.2223C9.58088 10.416 9.78026 10.6737 10.0014 10.9973C10.4454 11.6424 10.9113 12.4446 11.3463 13.2506L11.5819 13.7001C11.4218 13.7024 11.2617 13.7037 11.1016 13.7039C10.2671 13.713 9.43274 13.6742 8.60213 13.5877C8.29122 13.5543 7.98252 13.5006 7.67776 13.4269C7.55431 13.3948 7.43317 13.3534 7.31526 13.3029C6.89897 13.0459 6.59522 12.6228 6.47082 12.1264C6.34641 11.6301 6.41154 11.1013 6.65188 10.6562ZM9.12776 21.0529C8.71168 21.3058 8.21893 21.3724 7.75703 21.2384C7.29513 21.1043 6.90158 20.7804 6.66226 20.3373C6.42294 19.8943 6.35729 19.368 6.47963 18.8733C6.60196 18.3787 6.90236 17.9559 7.31526 17.6971C7.31707 17.6971 7.34426 17.6816 7.40045 17.6584C7.46751 17.6332 7.55813 17.6041 7.67776 17.5731C7.92063 17.5111 8.23057 17.4569 8.60213 17.4123C9.43274 17.3258 10.2671 17.287 11.1016 17.2961C11.2647 17.2961 11.4242 17.2961 11.5837 17.2999C11.5054 17.4503 11.4263 17.6001 11.3463 17.7494C10.9113 18.5554 10.4454 19.3576 10.0014 20.0028C9.81926 20.2741 9.6213 20.533 9.4087 20.7777C9.32126 20.8764 9.22737 20.9684 9.12776 21.0529ZM16.3125 23.25C16.3125 23.7639 16.1215 24.2567 15.7816 24.62C15.4417 24.9834 14.9807 25.1875 14.5 25.1875C14.0193 25.1875 13.5583 24.9834 13.2184 24.62C12.8785 24.2567 12.6875 23.7639 12.6875 23.25C12.7058 23.115 12.733 22.9817 12.7691 22.8509C12.8398 22.5971 12.9503 22.2812 13.1008 21.9151C13.4016 21.1827 13.8185 20.3496 14.2553 19.5455L14.5 19.0999L14.7447 19.5455C15.1815 20.3496 15.5966 21.1827 15.8993 21.9151C16.0497 22.2832 16.1603 22.5971 16.2309 22.8528C16.2678 22.9827 16.2951 23.1155 16.3125 23.25ZM22.3481 10.6562C22.5885 11.1013 22.6536 11.6301 22.5292 12.1264C22.4048 12.6228 22.101 13.0459 21.6848 13.3029C21.5668 13.3533 21.4457 13.3948 21.3223 13.4269C21.0794 13.4889 20.7694 13.5431 20.3979 13.5877C19.6511 13.6749 18.7703 13.7059 17.8984 13.7039C17.7353 13.7039 17.5758 13.7039 17.4163 13.7001L17.6538 13.2506C18.0888 12.4446 18.5546 11.6424 18.9986 10.9973C19.1808 10.7259 19.3787 10.467 19.5913 10.2223C19.6747 10.1254 19.7454 10.0556 19.7979 10.0091C19.8451 9.9665 19.8704 9.951 19.8723 9.94712C20.2885 9.69021 20.7833 9.62058 21.2476 9.75357C21.7119 9.88656 22.1078 10.2113 22.3481 10.6562ZM19.8723 21.0529C19.7727 20.969 19.6789 20.8777 19.5913 20.7797C19.3792 20.5345 19.1812 20.2757 18.9986 20.0047C18.5129 19.2785 18.064 18.5251 17.6538 17.7475C17.5744 17.5982 17.4958 17.4483 17.4181 17.298L17.8984 17.2941C18.7684 17.2922 19.6511 17.3232 20.3979 17.4104C20.7694 17.4549 21.0794 17.5092 21.3223 17.5712C21.4419 17.6022 21.5325 17.6312 21.5996 17.6564L21.6866 17.6952C21.8944 17.8215 22.0767 17.9905 22.2232 18.1924C22.3696 18.3943 22.4773 18.6253 22.5399 18.8718C22.6025 19.1184 22.6189 19.3758 22.5881 19.6292C22.5573 19.8826 22.4799 20.127 22.3604 20.3483C22.2409 20.5695 22.0816 20.7634 21.8917 20.9186C21.7018 21.0738 21.4851 21.1873 21.254 21.2526C21.0229 21.3179 20.782 21.3337 20.5452 21.2991C20.3084 21.2645 20.0803 21.1802 19.8741 21.0509L19.8723 21.0529ZM14.5 17.4375C14.0193 17.4375 13.5583 17.2334 13.2184 16.87C12.8785 16.5067 12.6875 16.0139 12.6875 15.5C12.6875 14.9861 12.8785 14.4933 13.2184 14.13C13.5583 13.7666 14.0193 13.5625 14.5 13.5625C14.9807 13.5625 15.4417 13.7666 15.7816 14.13C16.1215 14.4933 16.3125 14.9861 16.3125 15.5C16.3125 16.0139 16.1215 16.5067 15.7816 16.87C15.4417 17.2334 14.9807 17.4375 14.5 17.4375Z" fill="#3876BF"/>
<path d="M45.1865 14.6982V15.5405C45.1865 16.8914 45.0034 18.104 44.6372 19.1782C44.271 20.2524 43.7542 21.168 43.0869 21.9248C42.4196 22.6735 41.6221 23.2472 40.6943 23.646C39.7747 24.0448 38.7534 24.2441 37.6304 24.2441C36.5155 24.2441 35.4941 24.0448 34.5664 23.646C33.6468 23.2472 32.8493 22.6735 32.1738 21.9248C31.4984 21.168 30.9735 20.2524 30.5991 19.1782C30.2329 18.104 30.0498 16.8914 30.0498 15.5405V14.6982C30.0498 13.3392 30.2329 12.1266 30.5991 11.0605C30.9653 9.98633 31.4821 9.0708 32.1494 8.31396C32.8249 7.55713 33.6224 6.97933 34.542 6.58057C35.4697 6.1818 36.491 5.98242 37.606 5.98242C38.729 5.98242 39.7503 6.1818 40.6699 6.58057C41.5977 6.97933 42.3952 7.55713 43.0625 8.31396C43.738 9.0708 44.2588 9.98633 44.625 11.0605C44.9993 12.1266 45.1865 13.3392 45.1865 14.6982ZM41.4878 15.5405V14.6738C41.4878 13.7298 41.4023 12.8997 41.2314 12.1836C41.0605 11.4674 40.8083 10.8652 40.4746 10.377C40.141 9.88867 39.734 9.52246 39.2539 9.27832C38.7738 9.02604 38.2244 8.8999 37.606 8.8999C36.9875 8.8999 36.4382 9.02604 35.958 9.27832C35.486 9.52246 35.0832 9.88867 34.7495 10.377C34.424 10.8652 34.1758 11.4674 34.0049 12.1836C33.834 12.8997 33.7485 13.7298 33.7485 14.6738V15.5405C33.7485 16.4764 33.834 17.3065 34.0049 18.0308C34.1758 18.7469 34.4281 19.3532 34.7617 19.8496C35.0954 20.3379 35.5023 20.7082 35.9824 20.9604C36.4626 21.2127 37.0119 21.3389 37.6304 21.3389C38.2489 21.3389 38.7982 21.2127 39.2783 20.9604C39.7585 20.7082 40.1613 20.3379 40.4868 19.8496C40.8123 19.3532 41.0605 18.7469 41.2314 18.0308C41.4023 17.3065 41.4878 16.4764 41.4878 15.5405ZM52.0957 21.4365L55.0254 10.792H58.6997L54.2441 24H52.0225L52.0957 21.4365ZM50.0815 10.792L53.0234 21.4487L53.0845 24H50.8506L46.395 10.792H50.0815ZM66.1826 24.2441C65.1572 24.2441 64.2376 24.0814 63.4238 23.7559C62.61 23.4222 61.9183 22.9624 61.3486 22.3765C60.7871 21.7905 60.3558 21.111 60.0547 20.3379C59.7536 19.5566 59.603 18.7266 59.603 17.8477V17.3594C59.603 16.3584 59.7454 15.4429 60.0303 14.6128C60.3151 13.7827 60.722 13.0625 61.251 12.4521C61.7881 11.8418 62.4391 11.3739 63.2041 11.0483C63.9691 10.7147 64.8317 10.5479 65.792 10.5479C66.7279 10.5479 67.5579 10.7025 68.2822 11.0117C69.0065 11.321 69.6128 11.7604 70.1011 12.3301C70.5975 12.8997 70.9718 13.5833 71.2241 14.3809C71.4764 15.1702 71.6025 16.0492 71.6025 17.0176V18.4824H61.1045V16.1387H68.1479V15.8701C68.1479 15.3818 68.0584 14.9465 67.8794 14.564C67.7085 14.1733 67.4481 13.8641 67.0981 13.6362C66.7482 13.4084 66.3006 13.2944 65.7554 13.2944C65.2915 13.2944 64.8927 13.3962 64.5591 13.5996C64.2254 13.8031 63.9528 14.0879 63.7412 14.4541C63.5378 14.8203 63.3831 15.2516 63.2773 15.748C63.1797 16.2363 63.1309 16.7734 63.1309 17.3594V17.8477C63.1309 18.3766 63.2041 18.8649 63.3506 19.3125C63.5052 19.7601 63.7209 20.1466 63.9976 20.4722C64.2824 20.7977 64.6242 21.05 65.0229 21.229C65.4299 21.408 65.8896 21.4976 66.4023 21.4976C67.0371 21.4976 67.6271 21.3755 68.1724 21.1313C68.7257 20.8791 69.2018 20.5007 69.6006 19.9961L71.3096 21.8516C71.0329 22.2503 70.6545 22.6328 70.1743 22.999C69.7023 23.3652 69.1326 23.6663 68.4653 23.9023C67.798 24.1302 67.0371 24.2441 66.1826 24.2441ZM77.1201 13.6729V24H73.6045V10.792H76.9126L77.1201 13.6729ZM81.0996 10.7065L81.0386 13.9658C80.8677 13.9414 80.6602 13.9211 80.416 13.9048C80.18 13.8804 79.9644 13.8682 79.769 13.8682C79.2726 13.8682 78.8413 13.9333 78.4751 14.0635C78.117 14.1855 77.8159 14.3687 77.5718 14.6128C77.3358 14.8569 77.1567 15.154 77.0347 15.5039C76.9207 15.8538 76.8556 16.2526 76.8394 16.7002L76.1313 16.4805C76.1313 15.626 76.2168 14.8407 76.3877 14.1245C76.5586 13.4002 76.8068 12.7695 77.1323 12.2324C77.466 11.6953 77.8729 11.2803 78.353 10.9873C78.8332 10.6943 79.3825 10.5479 80.001 10.5479C80.1963 10.5479 80.3957 10.5641 80.5991 10.5967C80.8026 10.6211 80.9694 10.6577 81.0996 10.7065ZM93.2822 18.104H96.9321C96.8589 19.3003 96.5293 20.3623 95.9434 21.29C95.3656 22.2178 94.5558 22.9421 93.5142 23.4629C92.4806 23.9837 91.2355 24.2441 89.7788 24.2441C88.6395 24.2441 87.6182 24.0488 86.7148 23.6582C85.8115 23.2594 85.0384 22.6898 84.3955 21.9492C83.7607 21.2087 83.2765 20.3135 82.9429 19.2637C82.6092 18.2139 82.4424 17.0379 82.4424 15.7358V14.5029C82.4424 13.2008 82.6133 12.0249 82.9551 10.9751C83.305 9.91715 83.8014 9.0179 84.4443 8.27734C85.0954 7.53678 85.8726 6.96712 86.7759 6.56836C87.6792 6.1696 88.6883 5.97021 89.8032 5.97021C91.2843 5.97021 92.5335 6.23877 93.5508 6.77588C94.5762 7.31299 95.3696 8.05355 95.9312 8.99756C96.5008 9.94157 96.8426 11.0158 96.9565 12.2202H93.2944C93.2537 11.5041 93.1113 10.8978 92.8672 10.4014C92.623 9.89681 92.2528 9.51839 91.7563 9.26611C91.2681 9.0057 90.617 8.87549 89.8032 8.87549C89.1929 8.87549 88.6598 8.98942 88.2041 9.21729C87.7484 9.44515 87.3659 9.79102 87.0566 10.2549C86.7474 10.7188 86.5155 11.3047 86.3608 12.0127C86.2144 12.7126 86.1411 13.5345 86.1411 14.4785V15.7358C86.1411 16.6554 86.2103 17.4652 86.3486 18.165C86.487 18.8568 86.6986 19.4427 86.9834 19.9229C87.2764 20.3949 87.6507 20.7529 88.1064 20.9971C88.5703 21.2331 89.1278 21.3511 89.7788 21.3511C90.5438 21.3511 91.1745 21.229 91.6709 20.9849C92.1673 20.7407 92.5457 20.3786 92.8062 19.8984C93.0747 19.4183 93.2334 18.8201 93.2822 18.104ZM106.246 21.0215V15.1377C106.246 14.7145 106.177 14.3524 106.039 14.0513C105.9 13.742 105.685 13.502 105.392 13.3311C105.107 13.1602 104.736 13.0747 104.281 13.0747C103.89 13.0747 103.552 13.1439 103.268 13.2822C102.983 13.4124 102.763 13.6037 102.608 13.856C102.454 14.1001 102.376 14.389 102.376 14.7227H98.8608C98.8608 14.1611 98.991 13.6281 99.2515 13.1235C99.5119 12.619 99.8903 12.1755 100.387 11.793C100.883 11.4023 101.473 11.0972 102.157 10.8774C102.848 10.6577 103.622 10.5479 104.476 10.5479C105.501 10.5479 106.413 10.7188 107.21 11.0605C108.008 11.4023 108.635 11.915 109.09 12.5986C109.554 13.2822 109.786 14.1367 109.786 15.1621V20.814C109.786 21.5382 109.831 22.1323 109.92 22.5962C110.01 23.0519 110.14 23.4507 110.311 23.7925V24H106.759C106.588 23.6419 106.458 23.1943 106.368 22.6572C106.287 22.112 106.246 21.5667 106.246 21.0215ZM106.71 15.9556L106.734 17.9453H104.769C104.305 17.9453 103.902 17.9982 103.561 18.104C103.219 18.2098 102.938 18.3604 102.718 18.5557C102.499 18.7428 102.336 18.9626 102.23 19.2148C102.132 19.4671 102.083 19.7438 102.083 20.0449C102.083 20.346 102.153 20.6187 102.291 20.8628C102.429 21.0988 102.629 21.286 102.889 21.4243C103.15 21.5545 103.455 21.6196 103.805 21.6196C104.334 21.6196 104.793 21.5138 105.184 21.3022C105.575 21.0907 105.876 20.8302 106.087 20.521C106.307 20.2118 106.421 19.9188 106.429 19.6421L107.357 21.1313C107.227 21.465 107.048 21.8109 106.82 22.1689C106.6 22.527 106.319 22.8647 105.978 23.1821C105.636 23.4914 105.225 23.7477 104.745 23.9512C104.264 24.1465 103.695 24.2441 103.036 24.2441C102.197 24.2441 101.437 24.0773 100.753 23.7437C100.077 23.4019 99.5404 22.9339 99.1416 22.3398C98.751 21.7376 98.5557 21.054 98.5557 20.2891C98.5557 19.5973 98.6859 18.9829 98.9463 18.4458C99.2067 17.9087 99.5892 17.457 100.094 17.0908C100.606 16.7165 101.245 16.4357 102.01 16.2485C102.775 16.0532 103.662 15.9556 104.671 15.9556H106.71ZM116.207 5.25V24H112.679V5.25H116.207ZM122.823 5.25V24H119.295V5.25H122.823Z" fill="black"/>
</svg>
